<svg xmlns="http://www.w3.org/2000/svg" width="24" height="24" viewBox="0 0 24 24" fill="none">
  <g clip-path="url(#clip0_140_66)">
    <path d="M5.35299 11.8231C5.42144 11.704 5.46554 11.5725 5.48272 11.4363C5.4999 11.3 5.48982 11.1617 5.45306 11.0294C5.41631 10.8971 5.35361 10.7734 5.26862 10.6655C5.18363 10.5577 5.07804 10.4678 4.95799 10.4011C4.71403 10.2657 4.42662 10.2316 4.15778 10.3063C3.88894 10.3809 3.66023 10.5583 3.52099 10.8001L0.137993 16.7021C0.0694072 16.8211 0.0252004 16.9526 0.00794962 17.0889C-0.00930117 17.2251 0.000749215 17.3635 0.0375149 17.4959C0.0742805 17.6282 0.137026 17.7519 0.222093 17.8598C0.30716 17.9676 0.412847 18.0575 0.532993 18.1241C0.776834 18.2596 1.06415 18.2937 1.33298 18.2193C1.60181 18.1448 1.83059 17.9677 1.96999 17.7261L5.35299 11.8231ZM16.569 11.8231C16.6375 11.7041 16.6816 11.5727 16.6989 11.4365C16.7161 11.3002 16.7061 11.162 16.6695 11.0297C16.6328 10.8973 16.5702 10.7736 16.4853 10.6657C16.4004 10.5578 16.295 10.4679 16.175 10.4011C15.9309 10.2656 15.6433 10.2316 15.3743 10.3062C15.1053 10.3808 14.8764 10.5582 14.737 10.8001L11.355 16.7021C11.2865 16.8211 11.2424 16.9525 11.2251 17.0887C11.2078 17.2249 11.2178 17.3632 11.2545 17.4955C11.2912 17.6278 11.3538 17.7515 11.4386 17.8594C11.5235 17.9673 11.629 18.0573 11.749 18.1241C12.255 18.4071 12.899 18.2281 13.187 17.7261L16.569 11.8231ZM23.862 7.29808C23.9304 7.17902 23.9745 7.04755 23.9917 6.9113C24.0089 6.77505 23.9988 6.63674 23.9621 6.50442C23.9253 6.3721 23.8626 6.24841 23.7776 6.14054C23.6926 6.03267 23.587 5.94277 23.467 5.87608C23.2231 5.74043 22.9356 5.70624 22.6667 5.7809C22.3978 5.85557 22.169 6.03309 22.03 6.27508L18.647 12.1771C18.5785 12.2961 18.5344 12.4276 18.5173 12.5639C18.5001 12.7001 18.5102 12.8384 18.5469 12.9707C18.5837 13.1031 18.6464 13.2267 18.7314 13.3346C18.8164 13.4425 18.9219 13.5324 19.042 13.5991C19.286 13.7345 19.5734 13.7685 19.8422 13.6939C20.111 13.6192 20.3398 13.4419 20.479 13.2001L23.862 7.29808ZM12.643 7.29808C12.7116 7.17912 12.7559 7.04769 12.7732 6.91145C12.7905 6.77521 12.7806 6.63689 12.7439 6.50454C12.7072 6.37219 12.6446 6.24846 12.5596 6.14056C12.4746 6.03267 12.3691 5.94276 12.249 5.87608C12.005 5.74056 11.7175 5.70633 11.4485 5.78078C11.1796 5.85523 10.9506 6.03239 10.811 6.27408L7.42899 12.1771C7.3605 12.2961 7.31635 12.4275 7.2991 12.5637C7.28185 12.6999 7.29184 12.8382 7.3285 12.9705C7.36516 13.1028 7.42776 13.2265 7.51265 13.3344C7.59754 13.4423 7.70303 13.5323 7.82299 13.5991C8.32899 13.8811 8.97299 13.7031 9.26099 13.2001L12.643 7.29808Z" fill="#C8C2FF"/>
  </g>
  <defs>
    <clipPath id="clip0_140_66">
      <rect width="24" height="24" fill="white"/>
    </clipPath>
  </defs>
</svg>
