<svg xmlns="http://www.w3.org/2000/svg" width="24" height="24" fill="none" viewBox="0 0 24 24"><path fill="#26265a" d="M14.77 18.068c3.127-.34 6.075-1.97 7.698-4.692-.769 6.732-8.29 10.987-14.43 8.374a3.1 3.1 0 0 1-1.386-1.153c-1.38-2.12-1.834-4.818-1.182-7.266 1.862 3.145 5.648 5.072 9.3 4.737"/><path fill="#26265a" d="M5.356 11.356c-1.268 2.866-1.322 6.223.231 8.985C.12 16.314.178 7.697 5.521 3.711a3.1 3.1 0 0 1 1.697-.62c2.532-.132 5.106.826 6.91 2.612-3.666.035-7.237 2.334-8.772 5.652"/><path fill="#26265a" d="M15.897 6.585C14.047 4.06 11.15 2.34 7.978 2.289c6.132-2.724 13.675 1.693 14.496 8.223a3.1 3.1 0 0 1-.298 1.77c-1.146 2.278-3.27 4.044-5.753 4.698a9.89 9.89 0 0 0-.527-10.395"/></svg>