<svg xmlns="http://www.w3.org/2000/svg" width="24" height="24" viewBox="0 0 24 24" fill="none">
  <path d="M14.7699 18.0682C17.8968 17.7283 20.8449 16.0975 22.4681 13.3757C21.6993 20.1077 14.1779 24.3629 8.03849 21.7504C7.47277 21.5104 6.98581 21.1109 6.65163 20.5974C5.27194 18.4771 4.81841 15.7791 5.47006 13.3306C7.33193 16.4755 11.1177 18.4033 14.7699 18.0682Z" fill="#26265A"/>
  <path d="M5.35594 11.3555C4.08842 14.2222 4.03353 17.5788 5.58747 20.341C0.118811 16.3143 0.178489 7.69709 5.52063 3.71064C6.01475 3.34218 6.60196 3.12348 7.21781 3.0902C9.75043 2.95945 12.3236 3.91745 14.1282 5.70268C10.4618 5.73832 6.89079 8.03702 5.35594 11.3555Z" fill="#26265A"/>
  <path d="M15.8965 6.58459C14.0466 4.06007 11.1511 2.34141 7.97876 2.28912C14.111 -0.435084 21.6539 3.98163 22.4751 10.5116C22.5516 11.1178 22.4512 11.7358 22.1767 12.2826C21.031 14.5598 18.9065 16.3261 16.4241 16.9797C18.243 13.6779 18.0185 9.64395 15.8965 6.58459Z" fill="#26265A"/>
</svg>
