<svg xmlns="http://www.w3.org/2000/svg" width="24" height="24" fill="none" viewBox="0 0 24 24"><g clip-path="url(#a)"><path fill="#c8c2ff" d="M5.353 11.823a1.037 1.037 0 0 0-.395-1.422 1.063 1.063 0 0 0-1.437.4l-3.383 5.9a1.035 1.035 0 0 0 .395 1.422 1.063 1.063 0 0 0 1.437-.398zm11.216 0a1.037 1.037 0 0 0-.394-1.422 1.064 1.064 0 0 0-1.438.4l-3.382 5.901a1.037 1.037 0 0 0 .394 1.422c.506.283 1.15.104 1.438-.398zm7.293-4.525a1.037 1.037 0 0 0-.395-1.422 1.06 1.06 0 0 0-1.437.4l-3.383 5.901a1.033 1.033 0 0 0 .395 1.422 1.063 1.063 0 0 0 1.437-.399zm-11.219 0a1.035 1.035 0 0 0-.394-1.422 1.064 1.064 0 0 0-1.438.398l-3.382 5.903a1.036 1.036 0 0 0 .394 1.422c.506.282 1.15.104 1.438-.399z"/></g><defs><clipPath id="a"><path fill="#fff" d="M0 0h24v24H0z"/></clipPath></defs></svg>