<svg xmlns="http://www.w3.org/2000/svg" width="24" height="18" fill="none" viewBox="0 0 24 18"><g clip-path="url(#a)"><path fill="#012169" d="M0 0h24v18H0z"/><path fill="#fff" d="m2.813 0 9.15 6.788L21.075 0H24v2.325l-9 6.712 9 6.676V18h-3l-9-6.712L3.038 18H0v-2.25l8.963-6.675L0 2.4V0z"/><path fill="#c8102e" d="M15.9 10.538 24 16.5V18l-10.162-7.462zm-6.9.75.225 1.312-7.2 5.4H0zM24 0v.113l-9.337 7.05.075-1.65L22.125 0zM0 0l8.963 6.6h-2.25L0 1.575z"/><path fill="#fff" d="M9.038 0v18h6V0zM0 6v6h24V6z"/><path fill="#c8102e" d="M0 7.238v3.6h24v-3.6zM10.238 0v18h3.6V0z"/></g><defs><clipPath id="a"><path fill="#fff" d="M0 9a9 9 0 0 1 9-9h6a9 9 0 1 1 0 18H9a9 9 0 0 1-9-9"/></clipPath></defs></svg>