<svg xmlns="http://www.w3.org/2000/svg" width="24" height="24" fill="none" viewBox="0 0 24 24"><path fill="#26265a" d="M11.08.023c.316-.042.65-.014.967-.014 1.178 0 2.335.184 3.463.532a12.2 12.2 0 0 1 3.961 2.09 11.9 11.9 0 0 1 3.422 4.336c1.442 3.156 1.431 6.981-.046 10.124-.956 2.032-2.488 3.733-4.343 4.973-1.513 1.012-3.283 1.631-5.084 1.85-2.293.28-4.77-.128-6.831-1.19-3.87-1.992-6.5-6.002-6.551-10.397-.01-.847.003-1.7.17-2.539.272-1.366.746-2.687 1.458-3.886a12 12 0 0 1 2.957-3.365A12.3 12.3 0 0 1 9.365.281a12 12 0 0 1 1.251-.2l.133-.016zm-4.002 19.98c-.532.057-1.094.154-1.552.455.103.025.221 0 .329 0 .258 0 .518-.01.776 0a9 9 0 0 1 1.94.305c.797.22 1.5.651 2.268.943.81.308 1.617.403 2.476.403.434 0 .864-.001 1.284-.12-.22-.117-.533-.095-.776-.144a11 11 0 0 1-1.552-.417 12 12 0 0 1-1.09-.467l-.23-.109a14 14 0 0 0-1.008-.442c-.902-.342-1.902-.511-2.865-.408m.806-2.277c-1.056 0-2.123.186-3.074.668a4.6 4.6 0 0 0-.656.409c-.064.047-.176.107-.199.189s.061.152.11.205c.237-.127.462-.262.715-.359 1.636-.624 3.62-.493 5.253.08.814.285 1.564.712 2.357 1.047a10.5 10.5 0 0 0 2.746.741c1.124.147 2.405.028 3.432-.481.36-.18.862-.452 1.015-.848-.189.016-.358.098-.538.154a9 9 0 0 1-.865.223c-.991.2-2.046.24-3.044.06-.94-.171-1.815-.514-2.685-.875l-.111-.046-.223-.092-.11-.047a26 26 0 0 0-1.348-.527c-.886-.311-1.836-.502-2.775-.502m1.85-16.291c-1.265.28-2.399.828-3.491 1.517-.635.4-1.241.81-1.791 1.325-.817.766-1.442 1.697-1.987 2.67-.561 1.002-.921 2.17-1.095 3.302-.17 1.112-.199 2.28-.003 3.393.244 1.391.71 2.696 1.444 3.903.246-.115.422-.38.626-.557.414-.36.847-.692 1.313-.98.173-.106.35-.188.538-.264.07-.029.186-.055.22-.133.052-.124-.046-.34-.063-.468a7 7 0 0 1-.067-1.11 9.7 9.7 0 0 1 .609-3.183c.288-.761.728-1.452 1.249-2.072a9 9 0 0 1 .558-.6c.115-.115.257-.213.329-.36-.374 0-.749.108-1.104.218-.767.237-1.514.589-2.15 1.085-.29.227-.501.523-.776.762-.084.073-.234.17-.35.116-.176-.084-.149-.43-.17-.59-.076-.614.155-1.39.449-1.922.472-.854 1.345-1.583 2.37-1.557.443.01.83.165 1.253.266-.107-.153-.25-.265-.388-.39a5.3 5.3 0 0 0-1.104-.801c-.162-.086-.336-.138-.507-.2-.086-.032-.194-.076-.227-.171-.06-.178.259-.343.376-.418.452-.29 1.007-.528 1.552-.542.85-.02 1.682.454 2.033 1.261.123.284.16.584.184.887l.004.057.006.085.003.028.004.057.004.057c.267-.219.455-.541.716-.775.61-.549 1.446-.792 2.239-.545.716.223 1.338.72 1.705 1.38.096.173.363.595.17.768-.151.134-.343.03-.503-.026a3 3 0 0 0-.37-.095l-.069-.013-.068-.013a3.9 3.9 0 0 0-1.373-.002c-.28.05-.555.15-.835.192v.06a2.23 2.23 0 0 1 1.884 1.11c.156.277.234.592.294.901.074.383.022.799-.082 1.171-.035.125-.098.337-.246.366-.106.02-.195-.085-.255-.156a4.6 4.6 0 0 0-.491-.523 20 20 0 0 0-1.463-1.14c-.266-.192-.558-.441-.865-.558.086.209.171.403.2.63.087.67-.192 1.299-.61 1.802a2.6 2.6 0 0 1-.426.427c-.066.05-.15.114-.238.1-.277-.044-.31-.463-.352-.677-.144-.728-.086-1.45.113-2.162-.177.09-.306.288-.417.45a5.3 5.3 0 0 0-.61 1.141c-.608 1.619-.602 3.515.185 5.074.088.174.221.15.394.15h.157a3 3 0 0 1 .47.018c.08.01.193 0 .256.06.077.072.036.195.019.283a3.5 3.5 0 0 0-.066.72c.327-.05.417-.577.533-.84.131-.3.265-.598.386-.901.06-.149.14-.316.119-.48-.024-.186-.157-.383-.25-.541-.176-.3-.376-.607-.506-.93-.104-.26-.007-.582.285-.674.161-.051.333.049.438.166.22.245.361.61.521.898l1.245 2.251q.159.287.32.57c.042.075.085.189.172.22.077.028.182-.011.258-.027.2-.04.398-.083.597-.12.24-.043.604-.035.776-.222-.252-.08-.543-.076-.806-.058-.157.011-.332.068-.477-.025-.215-.137-.358-.455-.49-.668-.325-.525-.632-1.058-.943-1.591l-.05-.085-.1-.17q-.076-.127-.148-.256c-.037-.066-.092-.153-.039-.227.056-.077.178-.081.289-.081h.021a1 1 0 0 0 .117-.005 10 10 0 0 1 1.343-.107c-.035-.122-.135-.26-.103-.39.072-.292.49-.383.684-.174.13.14.207.334.292.504.112.224.24.44.36.66.21.386.44.76.656 1.142l.054.094.028.046c.093.157.187.315.237.49-.75-.034-1.314-.91-1.641-1.501-.026.095.016.179.05.27q.104.284.261.54c.152.245.325.497.554.675.407.316.944.317 1.433.284.314-.022.706-.166 1.015-.068.308.097.432.438.249.7-.137.197-.32.271-.548.301.161.347.372.669.525 1.02.063.148.13.372.282.45.102.052.247.003.357.001-.11-.293-.317-.541-.418-.84.31.014.608.176.895.279a48 48 0 0 1 1.683.65l.257.103c.23.093.46.184.687.285.082.036.197.122.288.07.075-.044.123-.147.17-.216.128-.196.245-.398.36-.601.462-.813.802-1.704 1.028-2.612.748-2.994.106-6.297-1.69-8.797a11 11 0 0 0-2.514-2.48c-2.394-1.72-5.535-2.41-8.416-1.771m4.895 14.928c-.635.166-1.29.317-1.94.402.085.293.295.577.448.84.059.102.122.238.24.282.131.05.291-.03.416-.071-.058-.16-.155-.302-.234-.45-.033-.062-.084-.135-.057-.208.051-.137.263-.13.38-.153.31-.063.616-.142.926-.204.114-.023.273-.085.387-.047.086.029.138.1.187.174l.022.033a.6.6 0 0 0 .096.122c.126.114.313.131.472.162-.097-.22-.259-.41-.362-.63-.06-.128-.11-.316-.24-.39-.182-.101-.556.09-.741.138m-4-1.46c-.03.38-.146.69-.328 1.021.21.027.422.036.627.087.154.038.295.111.448.153-.082-.224-.233-.424-.35-.63-.118-.209-.224-.463-.396-.63"/></svg>