<svg xmlns="http://www.w3.org/2000/svg" width="24" height="24" fill="none" viewBox="0 0 24 24"><path fill="#c8c2ff" d="M23.15 2.542 18.207.15A1.49 1.49 0 0 0 16.5.44L.312 15.277a1.01 1.01 0 0 0 0 1.486l1.323 1.209a.996.996 0 0 0 1.277.057L22.407 3.163C23.06 2.665 24 3.133 24 3.96V3.9c0-.58-.33-1.107-.85-1.359"/><g filter="url(#a)"><path fill="#c8c2ff" d="m23.15 21.458-4.944 2.393a1.49 1.49 0 0 1-1.706-.291L.312 8.723a1.01 1.01 0 0 1 0-1.486l1.323-1.209a.996.996 0 0 1 1.277-.057l19.495 14.866c.654.498 1.593.03 1.593-.796v.058c0 .58-.33 1.107-.85 1.359"/></g><g filter="url(#b)"><path fill="#c8c2ff" d="M18.206 23.851a1.49 1.49 0 0 1-1.706-.291c.553.556 1.5.162 1.5-.625V1.065c0-.787-.947-1.181-1.5-.625a1.49 1.49 0 0 1 1.706-.29l4.944 2.39c.52.25.85.779.85 1.358v16.206c0 .58-.33 1.107-.85 1.358z"/></g><path fill="url(#c)" fill-rule="evenodd" d="M17.004 23.897c.378.148.81.139 1.19-.046l4.942-2.39c.52-.25.85-.779.85-1.358V3.897c0-.58-.33-1.107-.85-1.358L18.195.149A1.49 1.49 0 0 0 16.49.44L7.03 9.115 2.91 5.971a.995.995 0 0 0-1.276.057L.312 7.237a1.01 1.01 0 0 0 0 1.486L3.884 12 .31 15.277a1.01 1.01 0 0 0 .001 1.486l1.322 1.209a.995.995 0 0 0 1.276.057l4.12-3.144 9.46 8.675c.15.15.325.263.514.337m.985-17.374L10.812 12l7.177 5.477z" clip-rule="evenodd" opacity=".25" style="mix-blend-mode:overlay"/><defs><filter id="a" width="40.68" height="34.9" x="-8.35" y="-2.57" color-interpolation-filters="sRGB" filterUnits="userSpaceOnUse"><feFlood flood-opacity="0" result="BackgroundImageFix"/><feColorMatrix in="SourceAlpha" result="hardAlpha" values="0 0 0 0 0 0 0 0 0 0 0 0 0 0 0 0 0 0 127 0"/><feOffset/><feGaussianBlur stdDeviation="4.17"/><feColorMatrix values="0 0 0 0 0 0 0 0 0 0 0 0 0 0 0 0 0 0 0.25 0"/><feBlend in2="BackgroundImageFix" mode="overlay" result="effect1_dropShadow_140_107"/><feBlend in="SourceGraphic" in2="effect1_dropShadow_140_107" result="shape"/></filter><filter id="b" width="24.17" height="40.67" x="8.17" y="-8.33" color-interpolation-filters="sRGB" filterUnits="userSpaceOnUse"><feFlood flood-opacity="0" result="BackgroundImageFix"/><feColorMatrix in="SourceAlpha" result="hardAlpha" values="0 0 0 0 0 0 0 0 0 0 0 0 0 0 0 0 0 0 127 0"/><feOffset/><feGaussianBlur stdDeviation="4.17"/><feColorMatrix values="0 0 0 0 0 0 0 0 0 0 0 0 0 0 0 0 0 0 0.25 0"/><feBlend in2="BackgroundImageFix" mode="overlay" result="effect1_dropShadow_140_107"/><feBlend in="SourceGraphic" in2="effect1_dropShadow_140_107" result="shape"/></filter><linearGradient id="c" x1="11.99" x2="11.99" y1="0" y2="24" gradientUnits="userSpaceOnUse"><stop stop-color="#fff"/><stop offset="1" stop-color="#fff" stop-opacity="0"/></linearGradient></defs></svg>